<svg xmlns="http://www.w3.org/2000/svg" width="134.794" height="32" viewBox="0 0 134.794 32">
  <g id="Grupo_117" data-name="Grupo 117" style="isolation: isolate">
    <g id="Grupo_7" data-name="Grupo 7" transform="translate(54.048 10.301)">
      <path id="Trazado_13" data-name="Trazado 13" d="M204.114,37.1a.65.65,0,0,0-.432.385,2.664,2.664,0,0,0-.115.921v8.309a2.662,2.662,0,0,0,.115.922.65.65,0,0,0,.432.385,4.339,4.339,0,0,0,1.008.134v.335q-.806-.05-2.457-.05-1.555,0-2.438.05v-.335a4.339,4.339,0,0,0,1.008-.134.65.65,0,0,0,.432-.385,2.663,2.663,0,0,0,.115-.922v-4.02h-6.239v4.02a2.664,2.664,0,0,0,.115.922.65.65,0,0,0,.432.385,4.34,4.34,0,0,0,1.008.134v.335q-.883-.05-2.438-.05-1.651,0-2.457.05v-.335a4.339,4.339,0,0,0,1.008-.134.65.65,0,0,0,.432-.385,2.662,2.662,0,0,0,.115-.922V38.406a2.664,2.664,0,0,0-.115-.921.65.65,0,0,0-.432-.385,4.367,4.367,0,0,0-1.008-.134V36.63q.806.05,2.457.05,1.536,0,2.438-.05v.335a4.368,4.368,0,0,0-1.008.134.65.65,0,0,0-.432.385,2.665,2.665,0,0,0-.115.921v3.954h6.239V38.406a2.664,2.664,0,0,0-.115-.921.65.65,0,0,0-.432-.385,4.367,4.367,0,0,0-1.008-.134V36.63q.883.05,2.438.05,1.651,0,2.457-.05v.335a4.367,4.367,0,0,0-1.008.134" transform="translate(-192.201 -36.63)" fill="#fff"/>
      <path id="Trazado_14" data-name="Trazado 14" d="M259.9,47.654a3.087,3.087,0,0,1-.864.821,2.272,2.272,0,0,1-1.146.251,1.951,1.951,0,0,1-1.267-.4,2.522,2.522,0,0,1-.742-1.407l-.413-1.675a10.338,10.338,0,0,0-.422-1.34,1.744,1.744,0,0,0-.592-.754,1.868,1.868,0,0,0-1.108-.285h-1.784v3.853a2.716,2.716,0,0,0,.113.921.64.64,0,0,0,.423.385,4.138,4.138,0,0,0,.986.134v.335q-.864-.05-2.385-.05-1.615,0-2.4.05v-.335a4.143,4.143,0,0,0,.986-.134.64.64,0,0,0,.422-.385,2.716,2.716,0,0,0,.113-.921V38.407a2.717,2.717,0,0,0-.113-.921.641.641,0,0,0-.422-.385,4.157,4.157,0,0,0-.986-.134v-.335q.789.05,2.291.05l2.028-.017q.357-.016.808-.017a5.856,5.856,0,0,1,3.352.812,2.461,2.461,0,0,1,1.174,2.1,2.808,2.808,0,0,1-.348,1.315,3.262,3.262,0,0,1-1.164,1.189,5.249,5.249,0,0,1-2.132.712l.225.034a3.57,3.57,0,0,1,1.8.67,2.9,2.9,0,0,1,.827,1.541l.47,1.709a3.514,3.514,0,0,0,.394,1.072.648.648,0,0,0,.564.3.911.911,0,0,0,.535-.151,2.778,2.778,0,0,0,.5-.486Zm-7.822-10.57a.691.691,0,0,0-.4.419,2.739,2.739,0,0,0-.113.9v4.121h1.258a3.462,3.462,0,0,0,2.554-.737,2.863,2.863,0,0,0,.695-2.044,2.751,2.751,0,0,0-.732-2.077,3.365,3.365,0,0,0-2.385-.7,2.471,2.471,0,0,0-.873.117" transform="translate(-232.523 -36.631)" fill="#fff"/>
      <path id="Trazado_15" data-name="Trazado 15" d="M306.3,58.111a1.432,1.432,0,0,0,.944.24v.325q-1.472-.062-1.919-.062t-1.791.062v-.325a1.125,1.125,0,0,0,.824-.24,1.265,1.265,0,0,0,.232-.876V52.754a5.089,5.089,0,0,0-.072-.954,1.04,1.04,0,0,0-.336-.6,1.2,1.2,0,0,0-.808-.233,1.794,1.794,0,0,0-1.1.372,2.468,2.468,0,0,0-.776,1.016,3.516,3.516,0,0,0-.28,1.419v3.457a1.135,1.135,0,0,0,.272.876,1.433,1.433,0,0,0,.944.24v.325q-1.472-.062-1.92-.062t-1.792.062v-.325a1.126,1.126,0,0,0,.824-.24,1.265,1.265,0,0,0,.232-.876V52.754a5.091,5.091,0,0,0-.072-.954,1.04,1.04,0,0,0-.336-.6,1.2,1.2,0,0,0-.808-.233,1.8,1.8,0,0,0-1.1.372,2.46,2.46,0,0,0-.776,1.023,3.574,3.574,0,0,0-.28,1.427v3.442a1.264,1.264,0,0,0,.232.876,1.125,1.125,0,0,0,.824.24v.325q-1.343-.062-1.791-.062t-1.919.062v-.325a1.433,1.433,0,0,0,.944-.24,1.136,1.136,0,0,0,.272-.876V52.382a1.612,1.612,0,0,0-.272-1.039,1.174,1.174,0,0,0-.944-.325v-.326q.512.046.992.046a5.376,5.376,0,0,0,1.663-.217v1.83a2.913,2.913,0,0,1,1.088-1.419,2.764,2.764,0,0,1,1.536-.457,2.223,2.223,0,0,1,1.664.589,2.046,2.046,0,0,1,.5,1.24,2.811,2.811,0,0,1,1.1-1.4,2.938,2.938,0,0,1,1.551-.426,2.223,2.223,0,0,1,1.664.589,1.768,1.768,0,0,1,.408.791,5.273,5.273,0,0,1,.12,1.24v4.14a1.135,1.135,0,0,0,.272.876" transform="translate(-265.189 -46.582)" fill="#fff"/>
      <path id="Trazado_16" data-name="Trazado 16" d="M349.576,58.3a1.834,1.834,0,0,1-.488-1.357,1.682,1.682,0,0,1,.392-1.147,2.935,2.935,0,0,1,.928-.713,11.768,11.768,0,0,1,1.415-.558,7.572,7.572,0,0,0,1.328-.543.748.748,0,0,0,.432-.666V52.35a1.567,1.567,0,0,0-.392-1.233,1.642,1.642,0,0,0-1.1-.333,1.957,1.957,0,0,0-1.583.558,1.012,1.012,0,0,1,.536.325.911.911,0,0,1,.216.62.774.774,0,0,1-.256.612.957.957,0,0,1-.656.225.82.82,0,0,1-.672-.271,1,1,0,0,1-.224-.659,1.013,1.013,0,0,1,.184-.62,2.242,2.242,0,0,1,.552-.5,3.38,3.38,0,0,1,.976-.434,4.667,4.667,0,0,1,1.3-.171,2.746,2.746,0,0,1,1.887.574,1.739,1.739,0,0,1,.536.86,5.251,5.251,0,0,1,.136,1.326v4.31a1.054,1.054,0,0,0,.112.558.423.423,0,0,0,.384.17.784.784,0,0,0,.36-.085,2.082,2.082,0,0,0,.36-.24l.176.264a3.945,3.945,0,0,1-.712.442,1.834,1.834,0,0,1-.743.132,1.317,1.317,0,0,1-1.072-.372,1.545,1.545,0,0,1-.3-1.008,2.75,2.75,0,0,1-1.1,1.077,3.186,3.186,0,0,1-1.407.3,2.034,2.034,0,0,1-1.5-.488m4.007-1.31V53.947a1.1,1.1,0,0,1-.4.357q-.256.14-.784.372a7.434,7.434,0,0,0-.984.473,2.119,2.119,0,0,0-.648.612,1.689,1.689,0,0,0-.272.992,1.442,1.442,0,0,0,.352,1.054,1.245,1.245,0,0,0,.928.357,2.149,2.149,0,0,0,1.807-1.178" transform="translate(-304.971 -46.581)" fill="#fff"/>
      <path id="Trazado_17" data-name="Trazado 17" d="M388.181,51.064a1.749,1.749,0,0,1,.432.775,4.918,4.918,0,0,1,.128,1.256v4.14a1.136,1.136,0,0,0,.272.876,1.433,1.433,0,0,0,.944.24v.325q-1.472-.062-1.919-.062t-1.792.062v-.325a1.125,1.125,0,0,0,.824-.24,1.264,1.264,0,0,0,.232-.876V52.754a2.763,2.763,0,0,0-.256-1.326,1.086,1.086,0,0,0-1.04-.458,1.935,1.935,0,0,0-1.168.372,2.412,2.412,0,0,0-.792,1.016,3.556,3.556,0,0,0-.28,1.434v3.442a1.264,1.264,0,0,0,.232.876,1.124,1.124,0,0,0,.824.24v.325q-1.343-.062-1.791-.062t-1.92.062v-.325a1.433,1.433,0,0,0,.944-.24,1.136,1.136,0,0,0,.272-.876V52.382a1.612,1.612,0,0,0-.272-1.039,1.174,1.174,0,0,0-.944-.325v-.326q.512.046.992.046a5.376,5.376,0,0,0,1.663-.217v1.83a2.88,2.88,0,0,1,1.112-1.434,2.985,2.985,0,0,1,1.607-.442,2.269,2.269,0,0,1,1.7.589" transform="translate(-327.989 -46.582)" fill="#fff"/>
      <path id="Trazado_18" data-name="Trazado 18" d="M424.53,51.5a.7.7,0,0,1-.2-.543,1.969,1.969,0,0,1,.16-.713,2.359,2.359,0,0,0-.656.38,2.255,2.255,0,0,0-.432.519,2.406,2.406,0,0,1,.368,1.38A2.208,2.208,0,0,1,423,54.365a3.161,3.161,0,0,1-2.031.612h-.016a4.4,4.4,0,0,0-.8.543.742.742,0,0,0-.272.558q0,.5.768.5h2a3.271,3.271,0,0,1,1.8.458,1.523,1.523,0,0,1,.712,1.372,2.2,2.2,0,0,1-.5,1.38,3.415,3.415,0,0,1-1.456,1.023,6.2,6.2,0,0,1-2.319.387,5.8,5.8,0,0,1-2.327-.411,1.315,1.315,0,0,1-.936-1.217,1.183,1.183,0,0,1,.44-.915,3.065,3.065,0,0,1,1.224-.6l.1.248a1,1,0,0,0-.56.434,1.324,1.324,0,0,0-.208.729,1.2,1.2,0,0,0,.664,1.093,3.585,3.585,0,0,0,1.783.38,4.531,4.531,0,0,0,2.111-.457,1.5,1.5,0,0,0,.88-1.419,1.028,1.028,0,0,0-.408-.868,2.489,2.489,0,0,0-1.448-.31h-1.184a4.063,4.063,0,0,1-1.511-.233.907.907,0,0,1-.568-.93,1.415,1.415,0,0,1,.36-.915,3.71,3.71,0,0,1,1.191-.853,2.769,2.769,0,0,1-1.687-.713,2.249,2.249,0,0,1-.632-1.706,2.209,2.209,0,0,1,.768-1.837,3.164,3.164,0,0,1,2.031-.612,2.834,2.834,0,0,1,2.224.806,2.487,2.487,0,0,1,.768-.69,1.827,1.827,0,0,1,.928-.271.961.961,0,0,1,.672.233.857.857,0,0,1,.256.667.8.8,0,0,1-.8.868.69.69,0,0,1-.488-.186m-2.591,2.705a4.479,4.479,0,0,0,0-3.364,1.2,1.2,0,0,0-1.936,0,4.479,4.479,0,0,0,0,3.364,1.2,1.2,0,0,0,1.936,0" transform="translate(-354.237 -46.185)" fill="#fff"/>
      <path id="Trazado_19" data-name="Trazado 19" d="M459.783,51.521a4.439,4.439,0,0,1,1,3.171,4.409,4.409,0,0,1-1,3.163,3.852,3.852,0,0,1-5.262,0,4.408,4.408,0,0,1-1-3.163,4.438,4.438,0,0,1,1-3.171,3.831,3.831,0,0,1,5.262,0m-4.151.217a6.018,6.018,0,0,0-.56,2.953,5.969,5.969,0,0,0,.56,2.946,1.694,1.694,0,0,0,3.039,0,5.969,5.969,0,0,0,.56-2.946,6.018,6.018,0,0,0-.56-2.953,1.687,1.687,0,0,0-3.039,0" transform="translate(-380.037 -46.582)" fill="#fff"/>
    </g>
    <g id="Grupo_8" data-name="Grupo 8">
      <path id="Trazado_1" data-name="Trazado 1" d="M117.335,16.253a2.238,2.238,0,1,1-2.238-2.238,2.238,2.238,0,0,1,2.238,2.238" transform="translate(-81.122 -10.074)" fill="#8a8a8a" style="mix-blend-mode: luminosity;isolation: isolate"/>
      <path id="Trazado_2" data-name="Trazado 2" d="M141.125,22.211a2.238,2.238,0,1,1-2.238-2.238,2.238,2.238,0,0,1,2.238,2.238" transform="translate(-98.222 -14.356)" fill="#b1b1b1" style="mix-blend-mode: luminosity;isolation: isolate"/>
      <path id="Trazado_3" data-name="Trazado 3" d="M164.882,36.241A2.238,2.238,0,1,1,162.643,34a2.238,2.238,0,0,1,2.238,2.238" transform="translate(-115.298 -24.441)" fill="#b1b1b1" style="mix-blend-mode: luminosity;isolation: isolate"/>
      <path id="Trazado_4" data-name="Trazado 4" d="M110.451,33.046a37.058,37.058,0,0,0-4.1,12.052,39.819,39.819,0,0,0-.461,4.153q-.038.586-.051,1.164a36.13,36.13,0,0,0-.349,4.151l-.011,1.187a47.17,47.17,0,0,1-1.547-11.65,37.807,37.807,0,0,1,1.6-11.057Z" transform="translate(-74.708 -23.753)" fill="#8a8a8a" style="mix-blend-mode: luminosity;isolation: isolate"/>
      <path id="Trazado_5" data-name="Trazado 5" d="M125.88,42.858a35.271,35.271,0,0,0-12.32,9.929,39.791,39.791,0,0,0-3.335,4.8c-.1.172-.2.34-.3.512v0c-.118.208-.236.416-.349.624-.051.093-.1.186-.149.278,0-.239,0-.475,0-.717v0c0-.006.006-.008.006-.014v0a.025.025,0,0,1,0-.014c0-.143,0-.29.008-.436a36.134,36.134,0,0,1,.349-4.151c.017-.115.031-.231.051-.346a39.694,39.694,0,0,1,.967-4.592,37.379,37.379,0,0,1,5.036-11.161h0l4.848.855.143.208a37.928,37.928,0,0,0-6.687,8.8,39.724,39.724,0,0,0-2.671,5.849q.624-1.265,1.355-2.52a36.409,36.409,0,0,1,9.1-10.551Z" transform="translate(-78.656 -27.002)" fill="#b1b1b1" style="mix-blend-mode: luminosity;isolation: isolate"/>
      <path id="Trazado_6" data-name="Trazado 6" d="M81.254,5.406a2.7,2.7,0,1,1,2.7-2.7,2.7,2.7,0,0,1-2.7,2.7" transform="translate(-56.462)" fill="#ff2c1a"/>
      <path id="Trazado_7" data-name="Trazado 7" d="M47.548,16.253a2.238,2.238,0,1,0,2.238-2.238,2.238,2.238,0,0,0-2.238,2.238" transform="translate(-34.177 -10.074)" fill="#8a8a8a" style="mix-blend-mode: luminosity;isolation: isolate"/>
      <path id="Trazado_8" data-name="Trazado 8" d="M23.757,22.211A2.238,2.238,0,1,0,26,19.973a2.238,2.238,0,0,0-2.238,2.238" transform="translate(-17.076 -14.356)" fill="#b1b1b1" style="mix-blend-mode: luminosity;isolation: isolate"/>
      <path id="Trazado_9" data-name="Trazado 9" d="M0,36.241A2.238,2.238,0,1,0,2.238,34,2.238,2.238,0,0,0,0,36.241" transform="translate(0 -24.441)" fill="#b1b1b1" style="mix-blend-mode: luminosity;isolation: isolate"/>
      <path id="Trazado_10" data-name="Trazado 10" d="M49.221,33.046a37.064,37.064,0,0,1,4.1,12.052,39.894,39.894,0,0,1,.461,4.153q.038.586.051,1.164a36.134,36.134,0,0,1,.349,4.151l.011,1.187A47.158,47.158,0,0,0,55.736,44.1a37.807,37.807,0,0,0-1.6-11.057Z" transform="translate(-35.38 -23.753)" fill="#8a8a8a" style="mix-blend-mode: luminosity;isolation: isolate"/>
      <path id="Trazado_11" data-name="Trazado 11" d="M8.391,42.858a35.276,35.276,0,0,1,12.32,9.929,39.822,39.822,0,0,1,3.335,4.8c.1.172.2.34.3.512v0c.118.208.236.416.349.624.051.093.1.186.149.278,0-.239,0-.475,0-.717v0c0-.006-.006-.008-.006-.014v0a.023.023,0,0,0,0-.014c0-.143,0-.29-.009-.436a36.133,36.133,0,0,0-.349-4.151c-.017-.115-.031-.231-.051-.346a39.635,39.635,0,0,0-.967-4.592,37.372,37.372,0,0,0-5.036-11.161h0l-4.848.855-.143.208a37.92,37.92,0,0,1,6.687,8.8,39.724,39.724,0,0,1,2.671,5.849q-.624-1.265-1.355-2.52a36.409,36.409,0,0,0-9.1-10.551Z" transform="translate(-6.031 -27.002)" fill="#b1b1b1"/>
      <path id="Trazado_12" data-name="Trazado 12" d="M80.719,21.976H76.369l.915,8.033-1.349,1.572-1.349-1.572.915-8.033H71.151a36.156,36.156,0,0,1,2.736,14.17,38.059,38.059,0,0,1-1.42,10.464H79.4a38.059,38.059,0,0,1-1.42-10.464,36.156,36.156,0,0,1,2.736-14.17" transform="translate(-51.143 -15.796)" fill="#ff2c1a"/>
    </g>
  </g>
</svg>
