<svg xmlns="http://www.w3.org/2000/svg" viewBox="0 0 85 56">
  <g id="HRmango-logo-lightBG" style="isolation: isolate">
    <g id="Grupo_8" data-name="Grupo 8">
      <path id="Trazado_1" data-name="Trazado 1" d="M120.692,17.932a3.917,3.917,0,1,1-3.917-3.917,3.917,3.917,0,0,1,3.917,3.917" transform="translate(-57.32 -7.118)" fill="#8a8a8a" style="mix-blend-mode: luminosity;isolation: isolate"/>
      <path id="Trazado_2" data-name="Trazado 2" d="M144.482,23.89a3.917,3.917,0,1,1-3.917-3.917,3.917,3.917,0,0,1,3.917,3.917" transform="translate(-69.402 -10.144)" fill="#b1b1b1" style="mix-blend-mode: luminosity;isolation: isolate"/>
      <path id="Trazado_3" data-name="Trazado 3" d="M168.239,37.92A3.917,3.917,0,1,1,164.322,34a3.917,3.917,0,0,1,3.917,3.917" transform="translate(-81.468 -17.27)" fill="#b1b1b1" style="mix-blend-mode: luminosity;isolation: isolate"/>
      <path id="Trazado_4" data-name="Trazado 4" d="M115.337,33.046a64.853,64.853,0,0,0-7.17,21.092,69.688,69.688,0,0,0-.807,7.268q-.066,1.026-.089,2.037a63.23,63.23,0,0,0-.61,7.264l-.02,2.077A82.548,82.548,0,0,1,103.935,52.4a66.162,66.162,0,0,1,2.8-19.35Z" transform="translate(-52.788 -16.784)" fill="#8a8a8a" style="mix-blend-mode: luminosity;isolation: isolate"/>
      <path id="Trazado_5" data-name="Trazado 5" d="M138.22,46.827A61.724,61.724,0,0,0,116.66,64.2a69.633,69.633,0,0,0-5.836,8.4c-.177.3-.349.6-.522.9v0c-.207.364-.413.728-.61,1.092-.089.162-.177.325-.261.487,0-.418,0-.832,0-1.255v0c0-.01.01-.015.01-.025v0a.044.044,0,0,1,0-.025c0-.251,0-.507.015-.763a63.231,63.231,0,0,1,.61-7.264c.03-.2.054-.4.089-.605a69.462,69.462,0,0,1,1.693-8.036,65.414,65.414,0,0,1,8.814-19.532h0l8.484,1.5.251.364a66.374,66.374,0,0,0-11.7,15.4,69.515,69.515,0,0,0-4.675,10.236q1.092-2.214,2.372-4.409a63.716,63.716,0,0,1,15.93-18.464Z" transform="translate(-55.577 -19.079)" fill="#b1b1b1" style="mix-blend-mode: luminosity;isolation: isolate"/>
      <path id="Trazado_6" data-name="Trazado 6" d="M83.281,9.46a4.73,4.73,0,1,1,4.73-4.73,4.73,4.73,0,0,1-4.73,4.73" transform="translate(-39.895)" fill="#ff2c1a"/>
      <path id="Trazado_7" data-name="Trazado 7" d="M47.548,17.932a3.917,3.917,0,1,0,3.917-3.917,3.917,3.917,0,0,0-3.917,3.917" transform="translate(-24.149 -7.118)" fill="#8a8a8a" style="mix-blend-mode: luminosity;isolation: isolate"/>
      <path id="Trazado_8" data-name="Trazado 8" d="M23.757,23.89a3.917,3.917,0,1,0,3.917-3.917,3.917,3.917,0,0,0-3.917,3.917" transform="translate(-12.066 -10.144)" fill="#b1b1b1" style="mix-blend-mode: luminosity;isolation: isolate"/>
      <path id="Trazado_9" data-name="Trazado 9" d="M0,37.92A3.917,3.917,0,1,0,3.917,34,3.917,3.917,0,0,0,0,37.92" transform="translate(0 -17.27)" fill="#b1b1b1" style="mix-blend-mode: luminosity;isolation: isolate"/>
      <path id="Trazado_10" data-name="Trazado 10" d="M49.221,33.046a64.863,64.863,0,0,1,7.17,21.092,69.815,69.815,0,0,1,.807,7.268q.067,1.026.089,2.037a63.233,63.233,0,0,1,.61,7.264l.02,2.077A82.526,82.526,0,0,0,60.623,52.4a66.163,66.163,0,0,0-2.8-19.35Z" transform="translate(-24.999 -16.784)" fill="#8a8a8a" style="mix-blend-mode: luminosity;isolation: isolate"/>
      <path id="Trazado_11" data-name="Trazado 11" d="M8.391,46.827A61.733,61.733,0,0,1,29.95,64.2a69.688,69.688,0,0,1,5.836,8.4c.177.3.35.6.522.9v0c.207.364.413.728.61,1.092.089.162.177.325.261.487,0-.418,0-.832,0-1.255v0c0-.01-.01-.015-.01-.025v0a.041.041,0,0,0,.005-.025c0-.251-.005-.507-.015-.763a63.232,63.232,0,0,0-.61-7.264c-.03-.2-.054-.4-.089-.605A69.361,69.361,0,0,0,34.768,57.1a65.4,65.4,0,0,0-8.814-19.532h0l-8.484,1.5-.251.364a66.36,66.36,0,0,1,11.7,15.4A69.519,69.519,0,0,1,33.591,65.06q-1.092-2.214-2.372-4.409A63.716,63.716,0,0,0,15.29,42.187Z" transform="translate(-4.262 -19.079)" fill="#b1b1b1"/>
      <path id="Trazado_12" data-name="Trazado 12" d="M87.895,21.976H80.283l1.6,14.059-2.361,2.751-2.361-2.751,1.6-14.059H71.151a63.273,63.273,0,0,1,4.788,24.8,66.6,66.6,0,0,1-2.485,18.311H85.591a66.6,66.6,0,0,1-2.485-18.311,63.274,63.274,0,0,1,4.788-24.8" transform="translate(-36.137 -11.161)" fill="#ff2c1a"/>
    </g>
  </g>
</svg>
