<svg xmlns="http://www.w3.org/2000/svg" width="235.89" height="56" viewBox="0 0 235.89 56">
  <g id="HRmango-logo-lightBG" style="isolation: isolate">
    <g id="Grupo_7" data-name="Grupo 7" transform="translate(94.584 18.026)">
      <path id="Trazado_13" data-name="Trazado 13" d="M213.049,37.451a1.137,1.137,0,0,0-.756.674,4.662,4.662,0,0,0-.2,1.612V54.278a4.659,4.659,0,0,0,.2,1.613,1.137,1.137,0,0,0,.756.674,7.593,7.593,0,0,0,1.764.234v.587q-1.411-.088-4.3-.088-2.722,0-4.267.088V56.8a7.594,7.594,0,0,0,1.764-.234,1.137,1.137,0,0,0,.756-.674,4.66,4.66,0,0,0,.2-1.613V47.242H198.047v7.036a4.661,4.661,0,0,0,.2,1.613,1.137,1.137,0,0,0,.756.674,7.594,7.594,0,0,0,1.764.234v.587q-1.546-.088-4.267-.088-2.89,0-4.3.088V56.8a7.593,7.593,0,0,0,1.764-.234,1.138,1.138,0,0,0,.756-.674,4.659,4.659,0,0,0,.2-1.613V39.737a4.662,4.662,0,0,0-.2-1.612,1.138,1.138,0,0,0-.756-.674,7.642,7.642,0,0,0-1.764-.235V36.63q1.411.088,4.3.088,2.688,0,4.267-.088v.586a7.643,7.643,0,0,0-1.764.235,1.137,1.137,0,0,0-.756.674,4.663,4.663,0,0,0-.2,1.612v6.919h10.919V39.737a4.662,4.662,0,0,0-.2-1.612,1.138,1.138,0,0,0-.756-.674,7.643,7.643,0,0,0-1.764-.235V36.63q1.545.088,4.267.088,2.889,0,4.3-.088v.586a7.642,7.642,0,0,0-1.764.235" transform="translate(-192.201 -36.63)" fill="#1a1a1a"/>
      <path id="Trazado_14" data-name="Trazado 14" d="M268.609,55.921a5.4,5.4,0,0,1-1.512,1.436,3.975,3.975,0,0,1-2.005.439,3.415,3.415,0,0,1-2.218-.7,4.413,4.413,0,0,1-1.3-2.463l-.723-2.931a18.091,18.091,0,0,0-.739-2.345,3.052,3.052,0,0,0-1.035-1.319,3.269,3.269,0,0,0-1.939-.5h-3.122v6.743a4.754,4.754,0,0,0,.2,1.612,1.12,1.12,0,0,0,.74.674,7.242,7.242,0,0,0,1.725.235v.586q-1.512-.088-4.174-.088-2.827,0-4.206.088V56.8a7.25,7.25,0,0,0,1.725-.235,1.121,1.121,0,0,0,.739-.674,4.753,4.753,0,0,0,.2-1.612V39.738a4.755,4.755,0,0,0-.2-1.612,1.122,1.122,0,0,0-.739-.674,7.275,7.275,0,0,0-1.725-.235v-.586q1.38.088,4.009.088l3.55-.029q.625-.029,1.413-.03a10.248,10.248,0,0,1,5.866,1.422,4.307,4.307,0,0,1,2.054,3.68,4.913,4.913,0,0,1-.608,2.3,5.709,5.709,0,0,1-2.037,2.082,9.185,9.185,0,0,1-3.73,1.246l.394.059a6.248,6.248,0,0,1,3.155,1.172,5.082,5.082,0,0,1,1.446,2.7l.822,2.99a6.149,6.149,0,0,0,.69,1.876,1.134,1.134,0,0,0,.986.528,1.594,1.594,0,0,0,.937-.264,4.862,4.862,0,0,0,.871-.85Zm-13.689-18.5a1.21,1.21,0,0,0-.707.733,4.8,4.8,0,0,0-.2,1.583V46.95h2.2q3.254,0,4.47-1.29a5.009,5.009,0,0,0,1.216-3.577,4.815,4.815,0,0,0-1.281-3.635,5.889,5.889,0,0,0-4.174-1.231,4.324,4.324,0,0,0-1.528.205" transform="translate(-220.692 -36.631)" fill="#1a1a1a"/>
      <path id="Trazado_15" data-name="Trazado 15" d="M315.717,63.838a2.507,2.507,0,0,0,1.652.421v.569q-2.575-.108-3.359-.108t-3.135.108v-.569a1.969,1.969,0,0,0,1.441-.421,2.214,2.214,0,0,0,.406-1.533V54.464a8.906,8.906,0,0,0-.126-1.669,1.82,1.82,0,0,0-.588-1.045,2.092,2.092,0,0,0-1.413-.407,3.14,3.14,0,0,0-1.931.651,4.319,4.319,0,0,0-1.358,1.778,6.153,6.153,0,0,0-.49,2.483V62.3a1.987,1.987,0,0,0,.476,1.533,2.507,2.507,0,0,0,1.652.421v.569q-2.576-.108-3.359-.108t-3.135.108v-.569a1.971,1.971,0,0,0,1.442-.421A2.214,2.214,0,0,0,304.3,62.3V54.464a8.912,8.912,0,0,0-.126-1.669,1.82,1.82,0,0,0-.588-1.045,2.094,2.094,0,0,0-1.414-.407,3.14,3.14,0,0,0-1.932.651,4.305,4.305,0,0,0-1.357,1.791,6.254,6.254,0,0,0-.49,2.5V62.3a2.211,2.211,0,0,0,.406,1.533,1.968,1.968,0,0,0,1.441.421v.569q-2.351-.108-3.135-.108t-3.359.108v-.569a2.508,2.508,0,0,0,1.651-.421,1.988,1.988,0,0,0,.476-1.533V53.812a2.821,2.821,0,0,0-.476-1.818,2.054,2.054,0,0,0-1.651-.569v-.57q.9.081,1.736.081a9.408,9.408,0,0,0,2.911-.38v3.2a5.1,5.1,0,0,1,1.9-2.483,4.838,4.838,0,0,1,2.687-.8,3.89,3.89,0,0,1,2.911,1.031,3.581,3.581,0,0,1,.868,2.171,4.919,4.919,0,0,1,1.932-2.456,5.142,5.142,0,0,1,2.715-.746,3.89,3.89,0,0,1,2.911,1.031,3.094,3.094,0,0,1,.714,1.384,9.227,9.227,0,0,1,.21,2.171V62.3a1.987,1.987,0,0,0,.476,1.533" transform="translate(-243.773 -43.662)" fill="#1a1a1a"/>
      <path id="Trazado_16" data-name="Trazado 16" d="M349.942,64.162a3.209,3.209,0,0,1-.854-2.374,2.943,2.943,0,0,1,.686-2.008,5.134,5.134,0,0,1,1.623-1.248,20.6,20.6,0,0,1,2.477-.977,13.252,13.252,0,0,0,2.323-.95,1.308,1.308,0,0,0,.756-1.166V53.757a2.741,2.741,0,0,0-.686-2.157,2.873,2.873,0,0,0-1.918-.583,3.424,3.424,0,0,0-2.771.977,1.771,1.771,0,0,1,.938.569,1.6,1.6,0,0,1,.377,1.086,1.355,1.355,0,0,1-.448,1.072,1.676,1.676,0,0,1-1.148.393,1.435,1.435,0,0,1-1.176-.475,1.751,1.751,0,0,1-.392-1.153,1.772,1.772,0,0,1,.322-1.085,3.924,3.924,0,0,1,.966-.869,5.915,5.915,0,0,1,1.708-.759,8.168,8.168,0,0,1,2.267-.3,4.806,4.806,0,0,1,3.3,1,3.043,3.043,0,0,1,.938,1.506,9.193,9.193,0,0,1,.238,2.32v7.543a1.844,1.844,0,0,0,.2.977.741.741,0,0,0,.672.3,1.372,1.372,0,0,0,.63-.149,3.644,3.644,0,0,0,.63-.421l.308.462a6.905,6.905,0,0,1-1.246.773,3.209,3.209,0,0,1-1.3.231,2.306,2.306,0,0,1-1.876-.652,2.7,2.7,0,0,1-.532-1.763,4.812,4.812,0,0,1-1.932,1.885,5.575,5.575,0,0,1-2.463.53,3.56,3.56,0,0,1-2.617-.855m7.012-2.293V56.552a1.922,1.922,0,0,1-.7.624q-.448.244-1.372.652a13.007,13.007,0,0,0-1.721.827,3.706,3.706,0,0,0-1.134,1.072,2.956,2.956,0,0,0-.476,1.737,2.523,2.523,0,0,0,.616,1.845,2.178,2.178,0,0,0,1.624.624,3.76,3.76,0,0,0,3.163-2.062" transform="translate(-271.883 -43.661)" fill="#1a1a1a"/>
      <path id="Trazado_17" data-name="Trazado 17" d="M393.484,51.506a3.061,3.061,0,0,1,.756,1.357,8.608,8.608,0,0,1,.224,2.2V62.3a1.987,1.987,0,0,0,.476,1.533,2.507,2.507,0,0,0,1.652.421v.569q-2.576-.108-3.359-.108t-3.135.108v-.569a1.968,1.968,0,0,0,1.441-.421,2.211,2.211,0,0,0,.406-1.533V54.464a4.835,4.835,0,0,0-.448-2.32,1.9,1.9,0,0,0-1.82-.8,3.387,3.387,0,0,0-2.043.651,4.222,4.222,0,0,0-1.385,1.778,6.222,6.222,0,0,0-.49,2.51V62.3a2.212,2.212,0,0,0,.406,1.533,1.968,1.968,0,0,0,1.441.421v.569q-2.351-.108-3.135-.108t-3.359.108v-.569a2.507,2.507,0,0,0,1.651-.421,1.988,1.988,0,0,0,.476-1.533V53.812a2.821,2.821,0,0,0-.476-1.818,2.054,2.054,0,0,0-1.651-.569v-.57q.9.081,1.736.081a9.408,9.408,0,0,0,2.911-.38v3.2a5.04,5.04,0,0,1,1.946-2.51,5.224,5.224,0,0,1,2.813-.773,3.97,3.97,0,0,1,2.967,1.031" transform="translate(-288.147 -43.662)" fill="#1a1a1a"/>
      <path id="Trazado_18" data-name="Trazado 18" d="M429.707,52.691a1.232,1.232,0,0,1-.35-.95,3.446,3.446,0,0,1,.28-1.248,4.128,4.128,0,0,0-1.148.665,3.945,3.945,0,0,0-.756.909,4.211,4.211,0,0,1,.644,2.415,3.864,3.864,0,0,1-1.344,3.215,5.532,5.532,0,0,1-3.555,1.072h-.028a7.707,7.707,0,0,0-1.4.95,1.3,1.3,0,0,0-.476.977q0,.869,1.344.868h3.5a5.724,5.724,0,0,1,3.149.8,2.666,2.666,0,0,1,1.246,2.4,3.849,3.849,0,0,1-.868,2.415A5.975,5.975,0,0,1,427.4,68.97a10.844,10.844,0,0,1-4.059.678,10.144,10.144,0,0,1-4.073-.719,2.3,2.3,0,0,1-1.638-2.13,2.071,2.071,0,0,1,.77-1.6,5.363,5.363,0,0,1,2.141-1.058l.168.434a1.747,1.747,0,0,0-.98.76,2.318,2.318,0,0,0-.364,1.275,2.094,2.094,0,0,0,1.162,1.913,6.274,6.274,0,0,0,3.121.665,7.929,7.929,0,0,0,3.695-.8,2.628,2.628,0,0,0,1.54-2.483,1.8,1.8,0,0,0-.714-1.52,4.357,4.357,0,0,0-2.533-.542h-2.071a7.11,7.11,0,0,1-2.645-.407,1.587,1.587,0,0,1-.994-1.628,2.476,2.476,0,0,1,.63-1.6,6.491,6.491,0,0,1,2.085-1.493,4.845,4.845,0,0,1-2.953-1.248,3.936,3.936,0,0,1-1.106-2.985,3.866,3.866,0,0,1,1.344-3.215,5.537,5.537,0,0,1,3.555-1.071,4.959,4.959,0,0,1,3.891,1.411,4.353,4.353,0,0,1,1.344-1.208,3.2,3.2,0,0,1,1.623-.475,1.682,1.682,0,0,1,1.176.407,1.5,1.5,0,0,1,.448,1.167,1.4,1.4,0,0,1-1.4,1.52,1.207,1.207,0,0,1-.854-.326m-4.535,4.735a5.544,5.544,0,0,0,.574-2.944,5.545,5.545,0,0,0-.574-2.944,2.105,2.105,0,0,0-3.387,0,5.546,5.546,0,0,0-.574,2.944,5.545,5.545,0,0,0,.574,2.944,2.105,2.105,0,0,0,3.387,0" transform="translate(-306.693 -43.381)" fill="#1a1a1a"/>
      <path id="Trazado_19" data-name="Trazado 19" d="M464.48,52.306q1.749,1.831,1.75,5.549t-1.75,5.535a6.741,6.741,0,0,1-9.209,0q-1.749-1.817-1.749-5.535t1.749-5.549a6.705,6.705,0,0,1,9.209,0m-7.264.38a10.531,10.531,0,0,0-.98,5.169,10.446,10.446,0,0,0,.98,5.155,2.964,2.964,0,0,0,5.318,0,10.446,10.446,0,0,0,.98-5.155,10.531,10.531,0,0,0-.98-5.169,2.953,2.953,0,0,0-5.318,0" transform="translate(-324.923 -43.662)" fill="#1a1a1a"/>
    </g>
    <g id="Grupo_8" data-name="Grupo 8">
      <path id="Trazado_1" data-name="Trazado 1" d="M120.692,17.932a3.917,3.917,0,1,1-3.917-3.917,3.917,3.917,0,0,1,3.917,3.917" transform="translate(-57.32 -7.118)" fill="#8a8a8a" style="mix-blend-mode: luminosity;isolation: isolate"/>
      <path id="Trazado_2" data-name="Trazado 2" d="M144.482,23.89a3.917,3.917,0,1,1-3.917-3.917,3.917,3.917,0,0,1,3.917,3.917" transform="translate(-69.402 -10.144)" fill="#b1b1b1" style="mix-blend-mode: luminosity;isolation: isolate"/>
      <path id="Trazado_3" data-name="Trazado 3" d="M168.239,37.92A3.917,3.917,0,1,1,164.322,34a3.917,3.917,0,0,1,3.917,3.917" transform="translate(-81.468 -17.27)" fill="#b1b1b1" style="mix-blend-mode: luminosity;isolation: isolate"/>
      <path id="Trazado_4" data-name="Trazado 4" d="M115.337,33.046a64.853,64.853,0,0,0-7.17,21.092,69.688,69.688,0,0,0-.807,7.268q-.066,1.026-.089,2.037a63.23,63.23,0,0,0-.61,7.264l-.02,2.077A82.548,82.548,0,0,1,103.935,52.4a66.162,66.162,0,0,1,2.8-19.35Z" transform="translate(-52.788 -16.784)" fill="#8a8a8a" style="mix-blend-mode: luminosity;isolation: isolate"/>
      <path id="Trazado_5" data-name="Trazado 5" d="M138.22,46.827A61.724,61.724,0,0,0,116.66,64.2a69.633,69.633,0,0,0-5.836,8.4c-.177.3-.349.6-.522.9v0c-.207.364-.413.728-.61,1.092-.089.162-.177.325-.261.487,0-.418,0-.832,0-1.255v0c0-.01.01-.015.01-.025v0a.044.044,0,0,1,0-.025c0-.251,0-.507.015-.763a63.231,63.231,0,0,1,.61-7.264c.03-.2.054-.4.089-.605a69.462,69.462,0,0,1,1.693-8.036,65.414,65.414,0,0,1,8.814-19.532h0l8.484,1.5.251.364a66.374,66.374,0,0,0-11.7,15.4,69.515,69.515,0,0,0-4.675,10.236q1.092-2.214,2.372-4.409a63.716,63.716,0,0,1,15.93-18.464Z" transform="translate(-55.577 -19.079)" fill="#b1b1b1" style="mix-blend-mode: luminosity;isolation: isolate"/>
      <path id="Trazado_6" data-name="Trazado 6" d="M83.281,9.46a4.73,4.73,0,1,1,4.73-4.73,4.73,4.73,0,0,1-4.73,4.73" transform="translate(-39.895)" fill="#ff2c1a"/>
      <path id="Trazado_7" data-name="Trazado 7" d="M47.548,17.932a3.917,3.917,0,1,0,3.917-3.917,3.917,3.917,0,0,0-3.917,3.917" transform="translate(-24.149 -7.118)" fill="#8a8a8a" style="mix-blend-mode: luminosity;isolation: isolate"/>
      <path id="Trazado_8" data-name="Trazado 8" d="M23.757,23.89a3.917,3.917,0,1,0,3.917-3.917,3.917,3.917,0,0,0-3.917,3.917" transform="translate(-12.066 -10.144)" fill="#b1b1b1" style="mix-blend-mode: luminosity;isolation: isolate"/>
      <path id="Trazado_9" data-name="Trazado 9" d="M0,37.92A3.917,3.917,0,1,0,3.917,34,3.917,3.917,0,0,0,0,37.92" transform="translate(0 -17.27)" fill="#b1b1b1" style="mix-blend-mode: luminosity;isolation: isolate"/>
      <path id="Trazado_10" data-name="Trazado 10" d="M49.221,33.046a64.863,64.863,0,0,1,7.17,21.092,69.815,69.815,0,0,1,.807,7.268q.067,1.026.089,2.037a63.233,63.233,0,0,1,.61,7.264l.02,2.077A82.526,82.526,0,0,0,60.623,52.4a66.163,66.163,0,0,0-2.8-19.35Z" transform="translate(-24.999 -16.784)" fill="#8a8a8a" style="mix-blend-mode: luminosity;isolation: isolate"/>
      <path id="Trazado_11" data-name="Trazado 11" d="M8.391,46.827A61.733,61.733,0,0,1,29.95,64.2a69.688,69.688,0,0,1,5.836,8.4c.177.3.35.6.522.9v0c.207.364.413.728.61,1.092.089.162.177.325.261.487,0-.418,0-.832,0-1.255v0c0-.01-.01-.015-.01-.025v0a.041.041,0,0,0,.005-.025c0-.251-.005-.507-.015-.763a63.232,63.232,0,0,0-.61-7.264c-.03-.2-.054-.4-.089-.605A69.361,69.361,0,0,0,34.768,57.1a65.4,65.4,0,0,0-8.814-19.532h0l-8.484,1.5-.251.364a66.36,66.36,0,0,1,11.7,15.4A69.519,69.519,0,0,1,33.591,65.06q-1.092-2.214-2.372-4.409A63.716,63.716,0,0,0,15.29,42.187Z" transform="translate(-4.262 -19.079)" fill="#b1b1b1"/>
      <path id="Trazado_12" data-name="Trazado 12" d="M87.895,21.976H80.283l1.6,14.059-2.361,2.751-2.361-2.751,1.6-14.059H71.151a63.273,63.273,0,0,1,4.788,24.8,66.6,66.6,0,0,1-2.485,18.311H85.591a66.6,66.6,0,0,1-2.485-18.311,63.274,63.274,0,0,1,4.788-24.8" transform="translate(-36.137 -11.161)" fill="#ff2c1a"/>
    </g>
  </g>
</svg>
